<?xml version="1.0" encoding="UTF-8" standalone="no"?><svg xmlns="http://www.w3.org/2000/svg" xmlns:xlink="http://www.w3.org/1999/xlink" contentScriptType="application/ecmascript" contentStyleType="text/css" height="225px" preserveAspectRatio="none" style="width:739px;height:225px;" version="1.1" viewBox="0 0 739 225" width="739px" zoomAndPan="magnify"><defs/><g><!--MD5=[d9ff3660ef888086f9597cd3f11b4559]
cluster NativeSDK--><polygon fill="#FFFFFF" points="354,70,441,70,448,92.2969,498,92.2969,498,212,354,212,354,70" style="stroke: #000000; stroke-width: 1.5;"/><line style="stroke: #000000; stroke-width: 1.5;" x1="354" x2="448" y1="92.2969" y2="92.2969"/><text fill="#000000" font-family="sans-serif" font-size="14" font-weight="bold" lengthAdjust="spacingAndGlyphs" textLength="81" x="358" y="84.9951">NativeSDK</text><!--MD5=[3158f9966ed01317d9e0f28e57cb2143]
entity event--><rect fill="#F8F8F8" height="36.2969" style="stroke: #383838; stroke-width: 1.5;" width="109" x="371.5" y="168"/><rect fill="#F8F8F8" height="5" style="stroke: #383838; stroke-width: 1.5;" width="10" x="366.5" y="173"/><rect fill="#F8F8F8" height="5" style="stroke: #383838; stroke-width: 1.5;" width="10" x="366.5" y="194.2969"/><text fill="#000000" font-family="sans-serif" font-size="14" lengthAdjust="spacingAndGlyphs" textLength="89" x="381.5" y="190.9951">Eventsystem</text><!--MD5=[e882e0ed84e06b1eab465ab1ee4d7d02]
entity pygo--><rect fill="#F8F8F8" height="36.2969" style="stroke: #383838; stroke-width: 1.5;" width="128" x="362" y="97"/><rect fill="#F8F8F8" height="5" style="stroke: #383838; stroke-width: 1.5;" width="10" x="357" y="102"/><rect fill="#F8F8F8" height="5" style="stroke: #383838; stroke-width: 1.5;" width="10" x="357" y="123.2969"/><text fill="#000000" font-family="sans-serif" font-size="14" lengthAdjust="spacingAndGlyphs" textLength="108" x="372" y="119.9951">Pygo Generator</text><!--MD5=[fee662a292a0353a69bd162820bae93b]
entity User--><ellipse cx="22" cy="32.5" fill="#F8F8F8" rx="8" ry="8" style="stroke: #383838; stroke-width: 2.0;"/><path d="M22,40.5 L22,67.5 M9,48.5 L35,48.5 M22,67.5 L9,82.5 M22,67.5 L35,82.5 " fill="none" style="stroke: #383838; stroke-width: 2.0;"/><text fill="#000000" font-family="sans-serif" font-size="14" lengthAdjust="spacingAndGlyphs" textLength="32" x="6" y="98.4951">User</text><!--MD5=[76aeba0ab875879ea5d21554d0007a3a]
entity model--><polygon fill="#F8F8F8" points="141,8,141,44.2969,231,44.2969,231,18,221,8,141,8" style="stroke: #000000; stroke-width: 1.5;"/><path d="M221,8 L221,18 L231,18 " fill="#F8F8F8" style="stroke: #000000; stroke-width: 1.5;"/><text fill="#000000" font-family="sans-serif" font-size="14" lengthAdjust="spacingAndGlyphs" textLength="70" x="151" y="30.9951">model.xml</text><!--MD5=[caf660ac2a54b55a5c31b5515889e628]
entity config--><polygon fill="#F8F8F8" points="130,79,130,115.2969,242,115.2969,242,89,232,79,130,79" style="stroke: #000000; stroke-width: 1.5;"/><path d="M232,79 L232,89 L242,89 " fill="#F8F8F8" style="stroke: #000000; stroke-width: 1.5;"/><text fill="#000000" font-family="sans-serif" font-size="14" lengthAdjust="spacingAndGlyphs" textLength="92" x="140" y="101.9951">configure.xml</text><!--MD5=[37e306963809231d4053a5e1fcf60634]
entity event_xml--><polygon fill="#F8F8F8" points="143,168,143,204.2969,229,204.2969,229,178,219,168,143,168" style="stroke: #000000; stroke-width: 1.5;"/><path d="M219,168 L219,178 L229,178 " fill="#F8F8F8" style="stroke: #000000; stroke-width: 1.5;"/><text fill="#000000" font-family="sans-serif" font-size="14" lengthAdjust="spacingAndGlyphs" textLength="66" x="153" y="190.9951">event.xml</text><!--MD5=[c249f364d83a401275c0ae35335e5f45]
entity source--><polygon fill="#F8F8F8" points="610,133,610,169.2969,717,169.2969,717,143,707,133,610,133" style="stroke: #000000; stroke-width: 1.5;"/><path d="M707,133 L707,143 L717,143 " fill="#F8F8F8" style="stroke: #000000; stroke-width: 1.5;"/><text fill="#000000" font-family="sans-serif" font-size="14" lengthAdjust="spacingAndGlyphs" textLength="87" x="620" y="155.9951">source code</text><!--MD5=[00f22fe7754802585ca3cb9e54b77e83]
link User to model--><path d="M38.0236,58.4826 C60.4399,53.562 102.1666,44.4025 135.6102,37.0612 " fill="none" id="User-&gt;model" style="stroke: #383838; stroke-width: 1.0;"/><polygon fill="#383838" points="140.9024,35.8995,131.254,33.9224,136.0187,36.9716,132.9695,41.7363,140.9024,35.8995" style="stroke: #383838; stroke-width: 1.0;"/><text fill="#000000" font-family="sans-serif" font-size="13" lengthAdjust="spacingAndGlyphs" textLength="30" x="69" y="42.0669">write</text><!--MD5=[f0d1a43060abe2a3bbeab1a7590ac721]
link User to config--><path d="M38.0872,74.4763 C46.5154,80.2906 57.2921,86.6522 68,90 C85.9039,95.5976 106.066,98.0903 124.5913,98.9818 " fill="none" id="User-&gt;config" style="stroke: #383838; stroke-width: 1.0;"/><polygon fill="#383838" points="129.7697,99.192,120.9395,94.8299,124.7738,98.989,120.6147,102.8233,129.7697,99.192" style="stroke: #383838; stroke-width: 1.0;"/><text fill="#000000" font-family="sans-serif" font-size="13" lengthAdjust="spacingAndGlyphs" textLength="30" x="69" y="86.0669">write</text><!--MD5=[404e9a0fc850f505fbba35a76414a7df]
reverse link model to pygo--><path d="M235.9491,43.8875 C264.1862,54.0609 300.115,67.1081 332,79 C347.3912,84.7403 364.1532,91.1189 379.2041,96.893 " fill="none" id="model&lt;-pygo" style="stroke: #383838; stroke-width: 1.0; stroke-dasharray: 7.0,7.0;"/><polygon fill="#383838" points="231.1279,42.1515,238.2404,48.9641,235.8322,43.8455,240.9508,41.4373,231.1279,42.1515" style="stroke: #383838; stroke-width: 1.0;"/><text fill="#000000" font-family="sans-serif" font-size="13" lengthAdjust="spacingAndGlyphs" textLength="29" x="287.5" y="55.0669">read</text><!--MD5=[c4b9360ee44ca7f3fdbcefd6e64c92e7]
reverse link config to pygo--><path d="M247.3641,101.6023 C282.3423,104.2257 326.1332,107.51 361.6031,110.1702 " fill="none" id="config&lt;-pygo" style="stroke: #383838; stroke-width: 1.0; stroke-dasharray: 7.0,7.0;"/><polygon fill="#383838" points="242.2693,101.2202,250.9449,105.8822,247.2553,101.5942,251.5433,97.9046,242.2693,101.2202" style="stroke: #383838; stroke-width: 1.0;"/><text fill="#000000" font-family="sans-serif" font-size="13" lengthAdjust="spacingAndGlyphs" textLength="29" x="287.5" y="100.0669">read</text><!--MD5=[049c2e823053fb6bd662032a6573e10a]
link pygo to source--><path d="M490.2709,124.7421 C525.8857,130.1406 569.8474,136.8042 604.572,142.0677 " fill="none" id="pygo-&gt;source" style="stroke: #383838; stroke-width: 1.0;"/><polygon fill="#383838" points="609.6261,142.8339,601.3273,137.5301,604.6826,142.0845,600.1282,145.4398,609.6261,142.8339" style="stroke: #383838; stroke-width: 1.0;"/><text fill="#000000" font-family="sans-serif" font-size="13" lengthAdjust="spacingAndGlyphs" textLength="58" x="521" y="126.0669">generate</text><!--MD5=[db6a6837b510311831790c76d68f5a81]
link pygo to event_xml--><path d="M365.1197,133.0104 C324.5102,145.0241 271.8592,160.6 234.1682,171.7502 " fill="none" id="pygo-&gt;event_xml" style="stroke: #383838; stroke-width: 1.0;"/><polygon fill="#383838" points="229.1844,173.2246,238.9494,174.5072,233.979,171.8062,236.68,166.8358,229.1844,173.2246" style="stroke: #383838; stroke-width: 1.0;"/><text fill="#000000" font-family="sans-serif" font-size="13" lengthAdjust="spacingAndGlyphs" textLength="58" x="273" y="140.0669">generate</text><!--MD5=[7632f592d691d65fa0372deeead1431d]
link event_xml to event--><path d="M229.2665,200.5472 C242.7901,204.4217 257.8709,208.0655 272,210 C298.4202,213.6174 305.5414,213.3244 332,210 C343.1589,208.5979 354.8918,206.2945 366.14,203.6552 " fill="none" id="event_xml-&gt;event" style="stroke: #383838; stroke-width: 1.0;"/><polygon fill="#383838" points="371.2702,202.421,361.5842,200.6371,366.4089,203.5905,363.4555,208.4152,371.2702,202.421" style="stroke: #383838; stroke-width: 1.0;"/><text fill="#000000" font-family="sans-serif" font-size="13" lengthAdjust="spacingAndGlyphs" textLength="58" x="273" y="206.0669">generate</text><!--MD5=[ec83141c4dea959741dcc582b4759907]
link event to source--><path d="M480.5872,187.1917 C510.2253,186.9204 547.3761,185.0878 580,179 C590.688,177.0055 601.881,173.9587 612.4737,170.598 " fill="none" id="event-&gt;source" style="stroke: #383838; stroke-width: 1.0;"/><polygon fill="#383838" points="617.2945,169.0345,607.4994,168.0065,612.5384,170.5772,609.9677,175.6162,617.2945,169.0345" style="stroke: #383838; stroke-width: 1.0;"/><text fill="#000000" font-family="sans-serif" font-size="13" lengthAdjust="spacingAndGlyphs" textLength="58" x="521" y="175.0669">generate</text><!--MD5=[530cfee848543266c1ea6ec9b998dc45]
@startuml

left to right direction

skinparam monochrome true
skinparam shadowing false

Actor User
package NativeSDK{
    component Eventsystem as event
    component "Pygo Generator" as pygo
}
File "model.xml" as model
File "configure.xml" as config
File "event.xml" as event_xml
File "source code" as source


User - -> model:write
User - -> config:write
model <.. pygo:read
config <.. pygo:read
pygo - -> source:generate
pygo - -> event_xml:generate
event_xml - -> event:generate
event -> source:generate

@enduml

PlantUML version 1.2019.12(Sun Nov 03 11:24:54 CET 2019)
(APACHE source distribution)
Java Runtime: OpenJDK Runtime Environment
JVM: OpenJDK 64-Bit Server VM
Java Version: 11.0.5+10-post-Ubuntu-0ubuntu1.1
Operating System: Linux
Default Encoding: UTF-8
Language: en
Country: US
--></g></svg>